<?xml version="1.0" standalone="no"?>
<!DOCTYPE svg PUBLIC "-//W3C//DTD SVG 20010904//EN"
 "http://www.w3.org/TR/2001/REC-SVG-20010904/DTD/svg10.dtd">
<svg version="1.0" xmlns="http://www.w3.org/2000/svg"
 width="200.000000pt" height="200.000000pt" viewBox="0 0 200.000000 200.000000"
 preserveAspectRatio="xMidYMid meet">
<metadata>
Created by potrace 1.14, written by Peter Selinger 2001-2017
</metadata>
<g transform="translate(0.000000,200.000000) scale(0.100000,-0.100000)"
fill="#000000" stroke="none">
<path d="M915 1922 c-1 -2 -25 -5 -51 -8 -45 -5 -95 -16 -134 -31 -8 -3 -19
-7 -25 -7 -21 -2 -112 -41 -147 -63 -21 -13 -44 -23 -52 -23 -8 0 -16 -3 -18
-7 -1 -5 -30 -28 -63 -52 -126 -93 -295 -292 -326 -386 -9 -28 -28 -68 -43
-89 -14 -21 -26 -44 -27 -50 -16 -158 -20 -339 -10 -411 11 -74 17 -97 37
-150 4 -11 6 -24 5 -28 -2 -11 71 -161 81 -165 4 -2 8 -8 8 -14 0 -5 21 -37
47 -70 27 -33 55 -70 63 -83 41 -62 337 -240 372 -224 2 0 21 -6 43 -15 22 -9
54 -18 70 -20 17 -3 53 -9 80 -13 69 -12 212 -7 320 13 118 20 310 89 336 120
6 8 17 14 24 14 28 0 255 192 255 215 0 4 8 15 18 24 24 22 62 78 62 91 0 5 4
10 9 10 5 0 14 12 20 28 6 15 15 34 20 42 5 8 14 29 21 45 7 17 16 38 21 47 5
10 9 26 9 36 0 9 7 27 15 38 8 12 12 24 8 27 -3 3 -2 14 2 24 13 32 17 75 17
198 1 119 -7 194 -24 245 -3 8 -12 35 -19 60 -7 25 -22 61 -32 80 -10 19 -29
53 -40 75 -62 117 -231 281 -341 332 -17 7 -44 22 -61 33 -38 24 -184 82 -210
84 -11 1 -25 5 -31 8 -22 14 -297 32 -309 20z"/>
</g>
</svg>
