<svg width="24" height="18" viewBox="0 0 24 18" fill="none" xmlns="http://www.w3.org/2000/svg">
<path d="M19.884 1.5075C18.3646 0.80325 16.7399 0.291433 15.0413 0C14.8327 0.373607 14.589 0.876116 14.421 1.27586C12.6154 1.00687 10.8264 1.00687 9.05396 1.27586C8.88597 0.876116 8.63672 0.373607 8.42625 0C6.72586 0.291433 5.09931 0.80513 3.57985 1.51123C0.515083 6.09902 -0.315725 10.5729 0.0996796 14.9832C2.1324 16.4869 4.10234 17.4004 6.03904 17.9982C6.51722 17.3462 6.9437 16.6532 7.31109 15.9228C6.61137 15.6594 5.94119 15.3344 5.30795 14.9571C5.47594 14.8338 5.64027 14.7049 5.79903 14.5722C9.66137 16.3618 13.8579 16.3618 17.6741 14.5722C17.8347 14.7049 17.999 14.8338 18.1652 14.9571C17.5301 15.3362 16.858 15.6613 16.1583 15.9247C16.5257 16.6532 16.9504 17.3481 17.4304 18C19.3689 17.4022 21.3407 16.4888 23.3734 14.9832C23.8608 9.87051 22.5408 5.43775 19.884 1.5075ZM7.83729 12.2709C6.67785 12.2709 5.72702 11.1986 5.72702 9.89291C5.72702 8.58719 6.65755 7.5131 7.83729 7.5131C9.01705 7.5131 9.96785 8.58531 9.94755 9.89291C9.94938 11.1986 9.01705 12.2709 7.83729 12.2709ZM15.6358 12.2709C14.4764 12.2709 13.5256 11.1986 13.5256 9.89291C13.5256 8.58719 14.4561 7.5131 15.6358 7.5131C16.8156 7.5131 17.7664 8.58531 17.7461 9.89291C17.7461 11.1986 16.8156 12.2709 15.6358 12.2709Z" fill="white"/>
</svg>
