<svg width="24" height="24" viewBox="0 0 24 24" fill="none" xmlns="http://www.w3.org/2000/svg">
<path fill-rule="evenodd" clip-rule="evenodd" d="M12 2.34485L17.66 7.99485C19.22 9.55485 20 11.6348 20 13.6348C20 15.6348 19.22 17.7448 17.66 19.3048C16.1 20.8648 14.05 21.6548 12 21.6548C9.95 21.6548 7.9 20.8648 6.34 19.3048C4.78 17.7448 4 15.6348 4 13.6348C4 11.6348 4.78 9.55485 6.34 7.99485L12 2.34485ZM7.76 9.59485C6.62 10.7248 6.01 11.9948 6 13.9948H18C17.99 11.9948 17.38 10.7648 16.24 9.64485L12 5.26485L7.76 9.59485Z" fill="white"/>
</svg>
