<svg width="24" height="24" viewBox="0 0 24 24" fill="none" xmlns="http://www.w3.org/2000/svg">
<path fill-rule="evenodd" clip-rule="evenodd" d="M12 5.99988C8.69 5.99988 6 8.68988 6 11.9999H9L5 15.9999L1 11.9999H4C4 7.57988 7.58 3.99988 12 3.99988C13.57 3.99988 15.03 4.45988 16.26 5.23988L14.8 6.69988C13.97 6.24988 13.01 5.99988 12 5.99988ZM15 11.9999L19 7.99988L23 11.9999H20C20 16.4199 16.42 19.9999 12 19.9999C10.43 19.9999 8.97 19.5399 7.74 18.7599L9.2 17.2999C10.03 17.7499 10.99 17.9999 12 17.9999C15.31 17.9999 18 15.3099 18 11.9999H15Z" fill="white"/>
</svg>
