<svg width="22" height="18" viewBox="0 0 22 18" fill="none" xmlns="http://www.w3.org/2000/svg">
<path fill-rule="evenodd" clip-rule="evenodd" d="M1.48753 7.76325C7.3183 5.23103 11.1999 3.54844 13.1491 2.73213C18.6966 0.416484 19.8628 0.0166593 20.6125 0C20.779 0 21.1456 0.0333189 21.3954 0.233231C21.5954 0.399824 21.6453 0.616396 21.6787 0.78299C21.712 0.949583 21.7453 1.29943 21.712 1.56598C21.4121 4.73125 20.1127 12.4112 19.4463 15.943C19.1631 17.4423 18.6133 17.9421 18.0802 17.9921C16.9141 18.092 16.0311 17.2258 14.915 16.4927C13.1491 15.3433 12.1662 14.6269 10.4503 13.4941C8.4678 12.1946 9.75057 11.4783 10.8834 10.3121C11.1833 10.0123 16.2977 5.34765 16.3976 4.93117C16.4143 4.88119 16.4143 4.68127 16.2977 4.58132C16.1811 4.48136 16.0145 4.51468 15.8812 4.548C15.6979 4.58132 12.8992 6.44716 7.45158 10.1289C6.65193 10.6786 5.93558 10.9452 5.28586 10.9285C4.56951 10.9119 3.20345 10.5287 2.17057 10.1955C0.921118 9.79569 -0.0784426 9.57912 0.00485405 8.87943C0.0548321 8.51292 0.554612 8.14642 1.48753 7.76325Z" fill="white"/>
</svg>
